<svg width="128" height="128" viewBox="0 0 128 128" fill="none" xmlns="http://www.w3.org/2000/svg">
<g filter="url(#filter0_d)">
<circle cx="64" cy="60" r="49" fill="white"/>
</g>
<g clip-path="url(#clip0)">
<path d="M100.951 82.8935H93.8492L85.859 71.9984H81.2325V82.8935H74.9265V52.0321H86.5147C89.7542 52.0321 92.4181 52.9512 94.5049 54.7909C96.5917 56.6306 97.6359 59.0306 97.6359 61.9924C97.6359 63.925 97.161 65.6624 96.2111 67.2063C95.2597 68.7501 93.9294 69.9415 92.2168 70.7834L100.951 82.8935ZM81.2341 57.5969V66.4351H86.5132C87.9772 66.4351 89.122 66.0307 89.9476 65.2186C90.7732 64.4081 91.1852 63.3333 91.1852 61.9924C91.1852 60.683 90.7575 59.6239 89.9005 58.8119C89.0434 58.0014 87.9143 57.5969 86.5132 57.5969H81.2341Z" fill="#36A0CD"/>
<path d="M48.2856 39.6485C48.9068 39.3117 49.5563 39.0331 50.212 38.7751C50.8678 38.5138 51.5377 38.2919 52.2155 38.0873C53.5726 37.6876 54.969 37.3964 56.3985 37.2343C57.828 37.0754 59.2936 37.0486 60.7797 37.2438C62.2579 37.4421 63.7785 37.8764 65.1592 38.7404C65.8417 39.1764 66.4771 39.7209 67.0086 40.3598C67.5322 41.0035 67.9537 41.7321 68.2368 42.4923C68.806 44.0204 68.8957 45.6036 68.7353 47.075C68.5717 48.5544 68.1959 49.9582 67.6785 51.2864C67.4174 51.9505 67.1328 52.5989 66.8089 53.2284C66.6422 53.54 66.4833 53.8548 66.3104 54.1617C66.1264 54.4638 65.9518 54.7691 65.7584 55.065C65.8685 54.3663 66.0037 53.6833 66.1201 53.0002C66.2302 52.3157 66.3434 51.6389 66.433 50.9654C66.617 49.6182 66.7224 48.2821 66.6783 46.9964C66.6327 45.7122 66.4189 44.4799 65.9408 43.4397C65.469 42.3963 64.7299 41.5638 63.7597 40.9563C62.7957 40.3378 61.6178 39.9444 60.3771 39.6926C59.1332 39.4408 57.8201 39.3306 56.4897 39.2881C53.8163 39.2126 51.0817 39.4093 48.2856 39.6485Z" fill="#36A0CD"/>
<path d="M35.776 77.1964C35.8279 74.787 36.037 72.5303 35.8877 70.2751C35.6376 66.5059 33.6074 63.1507 31.5191 59.8458C29.3647 56.4323 27.5373 52.9244 27.454 49.0577C27.421 47.4934 27.6144 45.8582 28.1679 44.4056C29.9528 39.7159 34.9142 37.5456 40.5912 39.0014C44.727 40.0621 48.7496 41.5194 52.8871 42.5738C55.7963 43.315 58.814 43.677 61.7563 44.3962C54.2866 45.8519 50.4968 44.6417 44.9786 42.931C44.8717 42.898 44.7679 42.8539 44.6626 42.8162C41.1809 41.5918 37.6631 40.9607 34.6673 43.1451C31.6465 45.3483 30.8995 48.5132 31.9279 51.7787C32.8054 54.569 34.4157 57.2302 35.8075 59.9103C36.9004 62.016 38.4069 64.0005 39.2828 66.155C40.8648 70.0484 39.6131 73.4651 36.8092 76.4536C36.5355 76.7432 36.1361 76.9431 35.776 77.1964Z" fill="#36A0CD"/>
<path d="M64.9281 56.2624C61.75 53.3792 57.7006 51.9676 52.7801 52.0305H42.6874V62.3496H43.9706L44.2143 65.1383C44.109 65.2406 44.0178 65.3665 43.9439 65.5176C43.7882 65.8355 43.7363 66.2179 43.7913 66.5925C43.8652 67.0788 44.1153 67.4565 44.4329 67.6296L44.5682 69.1766C44.4722 69.2758 44.3857 69.3938 44.3166 69.5354C44.1609 69.8533 44.1074 70.2357 44.164 70.6087C44.2222 70.9833 44.381 71.3059 44.6169 71.5184C44.6704 71.5624 44.7254 71.6002 44.782 71.6348L44.9157 73.1661C44.8025 73.2715 44.7018 73.4069 44.6232 73.5674C44.4675 73.8884 44.4141 74.2709 44.4722 74.6438C44.5288 75.0184 44.6908 75.3426 44.9236 75.5503C44.9912 75.6117 45.0635 75.6573 45.139 75.6951L45.2758 77.2657C44.9975 77.5915 44.8528 78.1108 44.9314 78.6365C45.0242 79.2455 45.3922 79.6814 45.8231 79.7617C46.3074 80.6871 47.0984 81.2819 47.9838 81.2819C49.2497 81.2819 50.3285 80.0686 50.5816 78.4146C50.9323 78.103 51.1273 77.5191 51.0361 76.9289C50.9968 76.6677 50.9056 76.4379 50.7798 76.2538L50.9591 74.2252C51.1132 74.1151 51.2468 73.9577 51.3443 73.7547C51.5 73.4368 51.5535 73.0543 51.4984 72.6782C51.4513 72.3729 51.3318 72.1054 51.1619 71.8992L51.3318 69.9698C51.4576 69.8628 51.5692 69.7211 51.6526 69.548C51.8082 69.227 51.8633 68.8461 51.8051 68.4716C51.7642 68.1993 51.6651 67.9554 51.5268 67.7602L51.7013 65.7474C51.8287 65.6388 51.9419 65.5003 52.0253 65.3225C52.1809 65.003 52.2344 64.6237 52.1778 64.246C52.1369 63.9738 52.0378 63.7283 51.8963 63.5331L51.9985 62.3496H53.2833V57.7433C56.202 57.8393 58.542 58.6938 60.3017 60.3069C62.1714 62.0207 63.1055 64.3751 63.1055 67.3668C63.1055 70.3286 62.1557 72.7065 60.2561 74.4991C58.781 75.8887 56.9395 76.7385 54.7348 77.0501C54.7348 79.6531 56.8735 81.5668 59.2292 81.5668C59.8881 81.5668 60.5643 81.4173 61.2153 81.0899C62.5394 80.4258 63.7597 79.5776 64.881 78.5436C68.089 75.5818 69.6615 71.8567 69.6002 67.3668C69.6615 62.847 68.1047 59.1455 64.9281 56.2624ZM47.9838 80.4809C47.4176 80.4809 46.9003 80.1661 46.5244 79.6515L49.9007 78.7057C49.5972 79.7538 48.8487 80.4809 47.9838 80.4809ZM50.0973 77.8354L50.047 77.848L46.1439 78.9386L46.059 78.9622C45.8073 79.033 45.562 78.8127 45.5101 78.4744C45.4598 78.1344 45.6202 77.8008 45.8734 77.7316L45.9096 77.7205L49.9102 76.6C49.9416 76.5921 49.9731 76.5874 50.0029 76.5874C50.0564 76.5874 50.1067 76.6 50.1539 76.622C50.3049 76.6913 50.4244 76.8644 50.4574 77.0895C50.5093 77.4294 50.3473 77.763 50.0973 77.8354ZM45.7382 75.7502L50.3442 74.4629L50.2247 75.8179C50.0863 75.7769 49.9385 75.7722 49.7906 75.8147L45.8419 76.9211L45.7382 75.7502ZM50.8537 73.314C50.7845 73.4557 50.6807 73.5516 50.5581 73.5831L50.4165 73.624L45.6674 74.9523L45.5966 74.9728C45.4771 75.0058 45.3529 74.9727 45.2491 74.8815C45.1453 74.7886 45.0745 74.647 45.0509 74.4817C45.0242 74.3181 45.0478 74.1497 45.117 74.008C45.1846 73.8695 45.2884 73.7735 45.4095 73.7389L45.5573 73.6964L50.3709 72.3509C50.4024 72.3414 50.4338 72.3383 50.4653 72.3383C50.4873 72.3383 50.5093 72.3461 50.5282 72.3493C50.5958 72.3619 50.6618 72.3886 50.72 72.4421C50.8238 72.5334 50.8946 72.6751 50.9197 72.8403C50.9433 73.0056 50.9197 73.1739 50.8537 73.314ZM45.3843 71.7292C45.3922 71.7261 45.4 71.7261 45.4095 71.7229L50.7137 70.2373L50.5989 71.553C50.4857 71.5341 50.3693 71.5341 50.253 71.5656L45.4897 72.8985L45.3843 71.7292ZM51.1603 69.1074C51.0912 69.249 50.9874 69.345 50.8663 69.3765L50.7876 69.4017L45.3151 70.9298L45.29 70.9376C45.1689 70.9723 45.0447 70.9376 44.9424 70.8464C44.8371 70.7535 44.7663 70.6119 44.7427 70.4482C44.7176 70.283 44.7411 70.1146 44.8103 69.9729C44.8764 69.8344 44.9817 69.7384 45.1028 69.7038L45.2051 69.6739L50.6807 68.1426C50.709 68.1348 50.7436 68.1316 50.7751 68.1316C50.816 68.1316 50.8568 68.1395 50.8962 68.1552C50.9418 68.1725 50.9874 68.1993 51.0283 68.2339C51.1305 68.3268 51.2012 68.4684 51.2264 68.6337C51.2531 68.8005 51.2295 68.9657 51.1603 69.1074ZM45.0321 67.7067C45.0336 67.7067 45.0368 67.7067 45.0368 67.7067L51.0833 66.0149L50.9669 67.3542C50.8333 67.3196 50.6964 67.3196 50.5596 67.3589L45.1343 68.8776L45.0321 67.7067ZM51.5315 64.8818C51.4654 65.0235 51.3616 65.1195 51.239 65.1525L51.1588 65.1761L44.9629 66.9072L44.9188 66.9214C44.6672 66.9907 44.4203 66.7719 44.37 66.432C44.3464 66.2667 44.37 66.0983 44.4361 65.9598C44.5053 65.8182 44.609 65.7206 44.7317 65.686L44.8528 65.6514L51.0518 63.9203C51.0833 63.9092 51.1147 63.9061 51.1462 63.9061C51.1871 63.9061 51.2264 63.9155 51.2657 63.9313C51.3129 63.947 51.3585 63.9738 51.4009 64.0115C51.5047 64.1012 51.5755 64.2429 51.5991 64.4097C51.6243 64.5749 51.6007 64.7402 51.5315 64.8818ZM44.5634 62.3496H51.4057L51.3365 63.1287C51.206 63.094 51.0676 63.0972 50.9323 63.1349L44.782 64.8551L44.5634 62.3496ZM52.6936 61.547H43.2771V57.7354H52.6936V61.547Z" fill="#36A0CD"/>
</g>
<defs>
<filter id="filter0_d" x="0" y="0" width="128" height="128" filterUnits="userSpaceOnUse" color-interpolation-filters="sRGB">
<feFlood flood-opacity="0" result="BackgroundImageFix"/>
<feColorMatrix in="SourceAlpha" type="matrix" values="0 0 0 0 0 0 0 0 0 0 0 0 0 0 0 0 0 0 127 0"/>
<feOffset dy="4"/>
<feGaussianBlur stdDeviation="7.5"/>
<feColorMatrix type="matrix" values="0 0 0 0 0 0 0 0 0 0 0 0 0 0 0 0 0 0 0.15 0"/>
<feBlend mode="normal" in2="BackgroundImageFix" result="effect1_dropShadow"/>
<feBlend mode="normal" in="SourceGraphic" in2="effect1_dropShadow" result="shape"/>
</filter>
<clipPath id="clip0">
<rect width="73.5" height="45.7869" fill="white" transform="translate(27.4508 37.1066)"/>
</clipPath>
</defs>
</svg>
