<svg width="91" height="91" viewBox="0 0 91 91" fill="none" xmlns="http://www.w3.org/2000/svg">
<g clip-path="url(#clip0)">
<path d="M52.3528 90.3958H90.1771L82.1583 55.2223C81.3994 51.8973 78.5139 49.5726 75.1395 49.5726H58.1152V48.3368C59.0242 44.7814 60.7545 41.4428 63.1441 38.6794C67.3314 33.8336 69.6401 27.6206 69.6401 21.1839V12.7879C69.6401 5.73679 63.9721 0 57.0056 0C54.1691 0 51.4287 0.979743 49.0778 2.83511C46.4892 4.87823 43.8146 4.87823 41.2259 2.83511C38.8751 0.979743 36.1313 0 33.2965 0C26.33 0 20.662 5.73679 20.662 12.7879V21.1822C20.662 27.6188 22.969 33.8318 27.158 38.6776C29.5476 41.4428 31.2779 44.7797 32.1868 48.3351V49.5709H15.1626C11.7881 49.5709 8.9044 51.8956 8.14383 55.2223L0.125 90.3958H37.9493V87.4804H3.7457L10.9517 55.8795C11.4053 53.8824 13.1373 52.4879 15.1626 52.4879H32.1868V55.4033H36.5091V59.5544L34.8648 59.7916L35.273 62.6762L36.5108 62.4987V65.385L34.8665 65.6223L35.2746 68.5069L36.5125 68.3294V71.2157L34.8682 71.4529L35.2763 74.3375L36.5141 74.16V77.0463L34.8699 77.2836L35.278 80.1682L36.5158 79.9907V82.2455L45.1519 91L53.7947 82.2523V77.497L55.4389 77.2597L55.0308 74.3751L53.793 74.5526V71.6663L55.4372 71.429L55.0291 68.5444L53.7913 68.7219V65.8356L55.4356 65.5984L55.0274 62.7138L53.7896 62.8913V60.005L55.4339 59.7677L55.0258 56.8831L53.7879 57.0606V55.4084H58.1102V52.493H75.1344C77.1581 52.493 78.89 53.8876 79.3453 55.8829L86.5513 87.4855H52.3528V90.3958ZM50.9126 81.0438L45.1519 86.8762L39.3895 81.0438V79.5793L50.9143 77.9134V81.0438H50.9126ZM50.9126 74.9691L39.3878 76.635V73.7487L50.9126 72.0828V74.9691ZM50.9126 69.1367L39.3878 70.8026V67.9163L50.9126 66.2504V69.1367ZM50.9126 63.3043L39.3878 64.9703V62.0839L50.9126 60.418V63.3043ZM50.9126 57.472L39.3878 59.1379V55.4033H50.9126V57.472ZM55.2349 52.4879H53.7947H36.5091H35.0689V49.5726H48.0339V46.6573H34.7164C33.6405 43.0199 31.7973 39.6164 29.3284 36.7591C25.5981 32.4459 23.544 26.9139 23.544 21.1857V12.7879C23.544 7.34466 27.9186 2.91533 33.2982 2.91533C35.4871 2.91533 37.6154 3.68172 39.4535 5.13255C43.081 7.99497 47.2245 7.99497 50.8502 5.13255C52.6884 3.68172 54.8167 2.91533 57.0056 2.91533C62.3852 2.91533 66.7597 7.34466 66.7597 12.7879V21.1822C66.7597 26.9122 64.7057 32.4442 60.9754 36.7574C58.5065 39.6147 56.6633 43.0182 55.5873 46.6555H50.9126V49.5709H55.2349V52.4879Z" fill="white"/>
</g>
<defs>
<clipPath id="clip0">
<rect width="90.0521" height="91" fill="white" transform="translate(0.125)"/>
</clipPath>
</defs>
</svg>
