<svg width="121" height="80" viewBox="0 0 121 80" fill="none" xmlns="http://www.w3.org/2000/svg">
<g clip-path="url(#clip0)">
<path d="M60.5382 79.9998C46.126 79.7501 31.8155 78.6816 17.6929 75.6359C15.0123 75.0567 12.3436 74.4076 9.69629 73.6826C4.34307 72.2167 0.842742 67.8428 0.31642 62.2107C-0.149247 57.2057 -0.0729403 52.2826 1.97952 47.5812C3.1476 44.9089 4.83418 42.6561 6.95316 40.6808C7.60666 40.0697 7.86102 39.0271 8.35016 38.2143C8.89605 37.3056 8.62408 36.5586 8.27581 35.6119C7.15077 32.5642 7.17034 29.3487 7.46579 26.1532C7.53427 25.4102 7.411 24.9129 6.95707 24.3517C3.70523 20.3373 1.77408 15.7837 1.77408 10.5051C1.77408 3.32313 8.48125 -1.72581 15.1513 0.580964C24.1457 3.69061 33.3279 5.91949 42.7391 7.15975C52.391 8.43197 62.0663 8.65966 71.767 7.8388C83.4126 6.85019 94.7432 4.39562 105.81 0.555C112.403 -1.7338 119.107 3.33511 119.12 10.4551C119.13 15.6439 117.283 20.1516 114.11 24.126C113.564 24.809 113.438 25.4342 113.427 26.3349C113.391 29.1969 113.517 32.1747 112.767 34.873C112.261 36.6944 112.401 38.0665 113.035 39.6123C113.151 39.8919 113.296 40.2015 113.517 40.3852C118.747 44.7292 120.735 50.557 120.809 57.1997C120.832 59.3986 120.776 61.6535 120.343 63.7945C119.298 68.9712 116.111 72.3046 111.132 73.6926C101.041 76.5027 90.7498 78.1783 80.3271 78.9333C73.7373 79.4126 67.1338 79.6523 60.5382 79.9998ZM29.4676 53.8604C28.1195 55.1626 26.656 55.9674 24.8109 55.3603C23.0069 54.7651 22.1147 53.2712 21.4965 51.4837C19.9899 52.8478 18.5303 53.8764 16.5639 53.1773C14.7032 52.5163 13.8716 50.9445 13.3923 49.133C9.80782 50.6768 8.25233 49.6483 6.92772 44.867C6.64598 45.2145 6.34271 45.4701 6.18814 45.7977C5.30571 47.671 4.27068 49.4985 3.64262 51.4617C2.5978 54.7372 2.81889 58.1424 3.06738 61.5456C3.40783 66.247 6.07857 69.7202 10.5337 70.9505C24.5253 74.817 38.824 76.4088 53.2675 76.8302C63.7039 77.1358 74.1286 76.8302 84.522 75.7078C93.3325 74.7571 102.055 73.3072 110.595 70.8726C114.317 69.812 116.696 67.2776 117.565 63.391C117.778 62.4384 117.819 61.4418 117.903 60.4631C118.265 56.2371 117.966 52.0988 116.095 48.2243C115.532 47.0559 114.781 45.9814 113.963 44.6093C113.225 49.3387 110.627 50.8106 107.488 49.145C107.007 50.9704 106.166 52.5243 104.301 53.1893C102.311 53.8983 100.854 52.7519 99.4234 51.5676C97.909 55.6079 94.6708 56.8842 91.3368 53.9083C90.6011 55.7877 89.3704 57.1318 87.3904 57.5552C85.3066 57.9986 83.8333 56.7144 82.3482 55.4781C82.2543 55.6938 82.1995 55.7977 82.1643 55.9075C81.4228 58.1544 79.8145 59.3128 77.5742 59.4366C75.3671 59.5584 73.704 58.5199 72.7023 56.4847C72.2601 55.588 71.8825 54.6573 71.497 53.7905C70.8455 55.2165 70.3622 56.7523 69.513 58.0325C67.3999 61.2181 62.9096 60.9485 61.0195 57.6231C60.8395 57.3076 60.6673 56.986 60.4501 56.5926C60.2956 56.8262 60.2212 56.9141 60.1743 57.016C59.1744 59.125 57.5896 60.3333 55.2319 60.2335C52.9192 60.1356 51.4733 58.7635 50.5889 56.6984C50.1741 55.7298 49.8533 54.7212 49.4169 53.5328C48.3839 56.5247 47.2627 59.3267 43.7507 59.4446C41.1132 59.5344 39.3503 58.0984 38.5383 55.5021C34.3219 58.7076 31.8468 58.2762 29.4676 53.8604ZM87.1888 29.4166C87.5391 28.7975 87.8541 28.1783 88.2239 27.5951C89.615 25.4002 91.3935 23.7745 94.0271 23.2552C95.0445 23.0535 95.6824 23.3491 96.1324 24.1999C96.825 25.5081 97.4785 26.8402 98.1399 28.1444C98.9127 27.2476 99.666 26.245 100.548 25.3803C102.356 23.6147 104.919 23.7545 105.612 26.4987C105.636 26.5945 105.726 26.6724 105.827 26.8202C106.434 25.9974 106.966 25.1785 107.594 24.4476C108.578 23.3032 109.645 22.2866 111.353 22.5822C111.57 22.6201 111.914 22.3565 112.082 22.1388C114.724 18.7316 116.322 14.9089 116.34 10.5111C116.36 5.28438 111.386 1.58556 106.541 3.29516C97.5666 6.46273 88.3745 8.63968 78.9653 9.9159C65.504 11.7433 52.072 11.5676 38.6577 9.43657C30.395 8.1244 22.3124 6.09724 14.4038 3.31314C9.49281 1.58356 4.52308 5.27439 4.5583 10.577C4.58765 14.9748 6.20966 18.7895 8.84909 22.1927C8.99779 22.3844 9.30106 22.6201 9.49085 22.5882C11.5198 22.2466 12.6136 23.6087 13.7093 24.9548C14.1886 25.544 14.6054 26.1871 15.0867 26.8582C16.472 23.7445 18.4422 23.393 20.7451 25.7517C21.2069 26.2251 21.6002 26.7683 22.015 27.2856C22.2634 27.5971 22.4924 27.9247 22.7095 28.2163C23.4472 26.7723 24.1085 25.4442 24.8031 24.134C25.2394 23.3151 25.8753 23.0715 26.8262 23.2492C29.4637 23.7445 31.25 25.3643 32.647 27.5592C33.0344 28.1663 33.3729 28.8055 33.8014 29.5444C34.0088 29.153 34.1301 28.9153 34.2612 28.6816C36.3802 24.9149 37.3096 24.4655 41.5613 26.98C42.0191 27.2516 42.4261 27.6531 42.7802 28.0625C43.4122 28.7915 43.9855 29.5724 44.5783 30.3273C45.2983 29.0132 45.9147 27.6451 46.7403 26.4248C49.8787 21.7793 56.4098 22.2027 58.9807 27.1977C59.4268 28.0665 59.7301 29.0112 60.1077 29.9179C60.1977 30.1356 60.321 30.3373 60.4951 30.6748C60.8669 29.6942 61.1545 28.8813 61.4813 28.0865C62.6787 25.1785 64.7722 23.389 67.891 23.2173C70.9061 23.0515 73.1523 24.5115 74.6354 27.1797C75.2126 28.2203 75.7369 29.2908 76.322 30.4172C76.6937 29.878 76.9872 29.4166 77.3159 28.9792C78.711 27.1218 80.5051 25.9235 82.7865 25.5001C83.665 25.3363 84.3929 25.4781 84.9368 26.245C85.6588 27.2616 86.3788 28.2762 87.1888 29.4166ZM68.3469 44.3537C70.1215 44.0721 72.2464 43.7445 74.3673 43.393C75.105 43.2712 75.3632 42.7899 75.3045 42.0349C75.2067 40.7787 75.2008 39.5165 75.0932 38.2602C74.79 34.7232 73.9408 31.3459 72.039 28.3281C70.0041 25.1006 65.9168 25.2844 64.3105 28.7296C62.2385 33.1753 61.7865 37.9546 61.9 42.8039C61.9078 43.1154 62.4439 43.6287 62.7902 43.6826C64.5003 43.9602 66.2299 44.112 68.3469 44.3537ZM52.4047 44.3717C54.5823 44.124 56.3844 43.9582 58.1727 43.6826C58.4936 43.6327 58.9905 43.1514 58.9983 42.8558C59.1294 38.2482 58.6266 33.7286 56.9205 29.4126C56.1946 27.5792 55.0402 26.2351 52.9603 26.0853C50.8355 25.9315 49.5089 27.1038 48.513 28.8794C46.1886 33.0255 45.6544 37.5712 45.6309 42.2227C45.629 42.5862 46.0712 43.2093 46.396 43.2792C48.4934 43.7306 50.6183 44.0601 52.4047 44.3717ZM42.7215 42.6201C42.8663 40.535 42.8585 38.7515 43.1402 37.016C43.6294 33.9962 42.3439 31.7094 40.4147 29.7302C38.5735 27.8428 37.5972 28.0905 36.5309 30.4851C35.1593 33.5588 35.0341 36.7923 35.3334 40.0956C35.4097 40.9365 35.7248 41.4737 36.4957 41.6115C38.5579 41.981 40.6338 42.2866 42.7215 42.6201ZM78.2277 42.5043C79.838 42.3445 81.4208 42.3066 82.9548 42.009C85.4162 41.5316 85.4025 41.4577 85.6373 38.9193C85.6451 38.8414 85.6568 38.7635 85.6607 38.6836C85.8075 35.3283 85.4475 32.0929 83.6494 29.159C83.215 28.45 82.7611 28.3481 82.0254 28.6736C79.9358 29.6023 77.4959 33.1334 77.5937 35.4502C77.6935 37.719 77.9929 39.9778 78.2277 42.5043ZM32.6568 36.8642C32.3849 35.4122 32.2323 33.9263 31.8135 32.5203C31.1698 30.3533 30.1876 28.3401 28.3386 26.9301C27.0923 25.9794 26.744 26.0673 26.1551 27.4973C24.7111 31.0104 24.5448 34.6812 24.9655 38.404C24.9968 38.6756 25.3098 39.0851 25.5486 39.133C26.9338 39.4086 28.3386 39.7941 29.7317 39.7681C32.3829 39.7142 32.381 39.6103 32.6568 36.8642ZM88.4782 36.7264C88.4782 37.1997 88.5428 37.683 88.4645 38.1404C88.3002 39.097 88.7248 39.4785 89.5915 39.6303C91.5344 39.9718 93.4382 39.866 95.2832 39.155C95.5669 39.0451 95.8956 38.6457 95.9309 38.3481C96.3261 34.9509 96.1989 31.5876 95.0543 28.3281C94.1856 25.8536 93.4988 25.6738 91.7438 27.667C89.4976 30.2215 88.3804 33.2612 88.4782 36.7264ZM51.534 47.1438C51.6259 50.2794 51.9762 53.3571 53.5199 56.1172C53.8682 56.7404 54.87 57.3375 55.5469 57.3116C56.222 57.2856 57.1611 56.6085 57.4781 55.9594C58.9044 53.0415 58.9729 49.842 59.0884 46.6105C56.5507 46.7903 54.148 46.958 51.534 47.1438ZM69.3761 47.1458C66.7816 46.962 64.3535 46.7923 61.7904 46.6105C61.9469 49.7302 62.0428 52.8198 63.25 55.7418C63.657 56.7284 64.334 57.3875 65.4238 57.3974C66.4588 57.4074 67.1475 56.7943 67.576 55.8776C68.8615 53.1314 69.2646 50.2035 69.3761 47.1458ZM41.0545 50.1336C41.1015 50.1336 41.1484 50.1356 41.1954 50.1356C41.1954 51.3938 41.1836 52.6521 41.2032 53.9103C41.2071 54.2199 41.2971 54.5314 41.3754 54.835C41.7823 56.4268 43.5198 57.1158 44.8444 56.1851C45.1496 55.9694 45.4255 55.6539 45.6114 55.3243C47.024 52.7959 47.3293 49.9698 47.6423 47.1518C47.6619 46.968 47.4975 46.6005 47.3821 46.5846C45.5605 46.3349 44.005 44.9449 42.0719 45.2764C41.7863 45.3243 41.3773 45.7318 41.346 46.0114C41.1895 47.3795 41.1406 48.7595 41.0545 50.1336ZM79.8732 50.7607C79.7636 48.8953 79.6677 47.5612 79.6149 46.2271C79.5875 45.5081 79.3684 45.0847 78.576 45.2804C76.9187 45.6898 75.2595 46.0893 73.6121 46.5326C73.4693 46.5706 73.2951 46.8981 73.3069 47.0799C73.5025 50.0357 73.8899 52.9557 75.4278 55.554C75.9619 56.4567 76.8502 56.7304 77.8461 56.5207C78.756 56.3289 79.4075 55.7837 79.5171 54.8091C79.6892 53.2892 79.7871 51.7633 79.8732 50.7607ZM87.2436 43.6007C85.5492 44.15 83.9585 44.6673 82.3072 45.2025C82.405 46.5406 82.6417 47.8808 82.5693 49.2029C82.4363 51.6335 83.9037 53.0256 85.5179 54.3277C86.414 55.0507 87.3493 54.9069 88.0556 53.9782C88.4176 53.5029 88.6876 52.8778 88.7854 52.2826C89.3039 49.1749 88.4156 46.3249 87.2436 43.6007ZM33.6938 43.6047C32.651 45.7957 31.9975 48.1304 31.9603 50.597C31.9466 51.5177 32.1383 52.4823 32.4377 53.3551C32.7977 54.4056 33.9188 55.0128 34.7191 54.6693C36.4056 53.9463 37.695 52.5502 38.1451 50.8945C38.644 49.0551 38.4327 47.016 38.5246 45.1825C36.8694 44.6433 35.3471 44.146 33.6938 43.6047ZM90.1355 42.8079C90.5776 44.5195 91.1764 46.3109 91.4796 48.1504C91.7712 49.9159 92.7064 51.1721 93.9449 52.2626C94.7432 52.9656 95.4945 52.8158 96.0952 51.9171C96.33 51.5676 96.5237 51.1562 96.6157 50.7447C97.2339 47.9467 96.5668 45.2824 95.702 42.6581C95.6374 42.4603 95.1756 42.2646 94.9154 42.2866C93.3227 42.4264 91.7359 42.6281 90.1355 42.8079ZM30.7413 42.8059C29.2504 42.6361 27.691 42.4903 26.1414 42.2686C25.529 42.1807 25.1592 42.3325 25.0633 42.9537C24.7209 45.1506 24.3002 47.3415 24.1183 49.5524C24.0537 50.3393 24.4744 51.2361 24.8696 51.973C25.214 52.6141 26.0025 53.0955 26.6149 52.4583C27.5893 51.4438 28.6732 50.3553 29.1604 49.0811C29.9333 47.0559 30.2502 44.853 30.7413 42.8059ZM17.5794 40.2994C16.5737 42.7639 15.7911 45.4861 16.1785 48.418C16.2567 49.0052 16.562 49.6443 16.9572 50.0717C17.2155 50.3513 17.9609 50.527 18.2524 50.3473C19.7649 49.4186 20.9017 48.0925 21.4084 46.3409C21.8213 44.9149 22.0521 43.435 22.4317 41.997C22.6548 41.1542 22.5648 40.7847 21.5786 40.7587C20.3382 40.7248 19.0996 40.4851 17.5794 40.2994ZM103.303 40.2954C101.803 40.4811 100.566 40.7248 99.3236 40.7627C98.3531 40.7927 98.2142 41.1402 98.4627 41.993C98.8012 43.1574 99.1925 44.3317 99.3255 45.53C99.5545 47.5951 100.85 48.8774 102.233 50.1256C103.025 50.8406 103.742 50.589 104.239 49.7282C104.487 49.3008 104.689 48.7975 104.743 48.3102C105.068 45.4142 104.323 42.728 103.303 40.2954ZM18.0431 27.1178C17.9198 27.735 17.7555 28.1484 17.7692 28.5538C17.8474 30.7907 17.8376 33.0435 18.1096 35.2584C18.3933 37.5652 19.7218 38.3141 22.1676 37.693C21.9915 35.8356 22.1206 33.8424 21.5512 32.0829C20.9525 30.2335 19.7316 28.5738 18.0431 27.1178ZM99.036 37.8069C101.388 38.2323 102.534 37.5312 102.824 35.0966C103.076 32.9616 103.07 30.7927 103.133 28.6377C103.145 28.2103 102.961 27.7749 102.834 27.1937C99.5779 30.0996 98.2201 33.5049 99.036 37.8069ZM10.52 25.7737C9.85282 28.6317 10.0837 31.4018 10.6805 34.142C10.8859 35.0887 11.5883 35.7358 12.5529 35.8476C13.4177 35.9475 14.3021 35.8696 15.2569 35.8696C15.1786 31.6774 12.9227 28.6996 10.52 25.7737ZM105.655 35.9075C106.309 35.9075 106.878 35.9115 107.447 35.9075C109.279 35.8935 110.091 35.2544 110.353 33.425C110.576 31.8732 110.717 30.3014 110.785 28.7336C110.828 27.7529 110.668 26.7623 110.597 25.7757C110.464 25.7537 110.329 25.7318 110.196 25.7098C107.995 28.7176 105.69 31.6734 105.655 35.9075ZM14.9967 38.6676C13.9186 38.6676 12.9207 38.6137 11.9327 38.6976C11.5864 38.7276 11.06 39.0311 10.9739 39.3207C10.5494 40.7407 10.1463 42.1847 9.93695 43.6507C9.82152 44.4675 10.0152 45.3683 10.2344 46.1831C10.387 46.7523 10.8937 47.3335 11.5296 46.7663C12.2379 46.1332 13.046 45.4202 13.361 44.5694C14.038 42.7519 14.4214 40.8226 14.9967 38.6676ZM105.89 38.7555C106.377 40.4811 106.768 42.0709 107.283 43.6167C107.559 44.4456 107.946 45.2804 108.473 45.9614C108.825 46.4168 109.512 46.6025 110.048 46.9081C110.357 46.307 110.871 45.7318 110.94 45.1026C111.186 42.8218 110.531 40.6928 109.711 38.7535C108.365 38.7555 107.158 38.7555 105.89 38.7555Z" fill="white"/>
</g>
<defs>
<clipPath id="clip0">
<rect width="120.729" height="80" fill="white" transform="translate(0.083252)"/>
</clipPath>
</defs>
</svg>
