<svg width="115" height="92" viewBox="0 0 115 92" fill="none" xmlns="http://www.w3.org/2000/svg">
<g clip-path="url(#clip0)">
<path d="M114.1 11.2767C113.878 14.0172 113.645 16.756 113.433 19.4965C113.131 23.4358 113.166 27.4383 112.441 31.2966C111.918 34.0829 112.132 36.7337 112.243 39.4637C112.361 42.3679 112.292 45.281 112.319 48.1887C112.327 49.1392 111.671 49.5722 110.982 49.9471C107.495 51.8428 103.819 53.2844 99.8363 53.4252C96.6325 53.5378 93.3693 53.4973 90.2181 52.9904C88.3441 52.6894 86.8516 52.7299 85.0337 53.3882C78.0698 55.9087 70.9152 56.1745 63.7169 54.3616C61.6085 53.83 59.5298 53.184 57.4021 52.5821C57.1869 53.5185 57.4949 54.2102 58.571 54.4725C60.9593 55.0516 62.2751 56.6691 63.3652 58.8376C68.3799 68.8089 73.5398 78.7062 78.6454 88.6299C78.7994 88.9274 79.0934 89.2618 79.0461 89.5294C78.9569 90.0468 78.7942 90.728 78.425 90.9639C78.1468 91.1416 77.4574 90.8037 77.0287 90.5573C76.782 90.4147 76.6823 90.0011 76.53 89.7036C71.1777 79.3205 65.8305 68.9339 60.4677 58.556C60.2332 58.1019 59.8587 57.7199 59.4441 57.162C60.2069 59.1245 60.9191 60.8618 61.5577 62.6255C62.6618 65.6688 63.6434 68.7578 64.8244 71.7695C65.6486 73.8693 66.6144 75.9287 67.7045 77.9018C69.3055 80.799 71.0727 83.6029 72.7682 86.4473C72.9204 86.7026 73.0779 86.956 73.2126 87.2218C73.5468 87.8819 73.4908 88.5859 72.8031 88.827C72.3762 88.9767 71.7306 88.695 71.2617 88.4539C70.9764 88.3078 70.84 87.8713 70.4743 87.6214C70.644 88.1494 70.7875 88.688 70.9869 89.2037C71.3001 90.0081 71.2634 90.7421 70.3763 91.0536C69.4804 91.367 69.0238 90.7579 68.7473 89.9764C67.246 85.7327 65.82 81.4591 64.198 77.2611C63.5069 75.4746 62.4308 73.8359 61.479 72.1584C60.5814 70.5761 59.6173 69.0324 58.5447 67.2406C58.438 68.6716 58.1335 69.7558 58.6969 71.0231C61.3093 76.9038 63.7851 82.8461 66.3082 88.7672C66.4394 89.0752 66.6984 89.4167 66.6441 89.693C66.5549 90.1507 66.3607 90.7755 66.023 90.9427C65.6941 91.1047 65.0449 90.8952 64.6897 90.6365C64.3695 90.4024 64.2313 89.8919 64.0581 89.4836C61.556 83.6346 59.0609 77.7839 56.5623 71.9331C56.4171 71.5952 56.2613 71.2608 56.1616 71.0372C53.8065 71.6022 51.5389 72.2676 49.2257 72.6794C42.3196 73.9133 35.5779 73.0755 28.9868 70.7802C28.3604 70.562 27.7742 70.2293 27.1618 69.9671C26.3377 69.6133 25.993 68.9849 26.0525 68.1031C26.3849 63.2715 26.7139 58.4398 27.0446 53.6082C27.0691 53.2456 27.0918 52.8848 27.1233 52.4201C22.5566 54.2331 17.9198 54.0606 13.3111 53.5343C9.67865 53.1189 6.25446 51.8481 3.14521 49.882C2.65879 49.574 2.23011 48.7361 2.23886 48.15C2.2931 44.0524 2.49432 39.9583 2.58355 35.8607C2.6028 34.9982 2.33859 34.1322 2.22311 33.2644C1.91166 30.9094 1.51623 28.5613 1.32376 26.1974C0.944069 21.5524 0.681612 16.8986 0.361414 12.2483C0.343917 11.9948 0.245932 11.7449 0.184692 11.4949C0.184692 10.3015 0.184692 9.10815 0.184692 7.91301C0.256431 7.79156 0.368413 7.67891 0.394658 7.55042C1.34475 2.86314 4.87918 0.0257824 10.0653 0.0521846C33.0024 0.166594 55.9394 0.101469 78.8764 0.101469C87.6215 0.101469 96.3666 0.104989 105.112 0.0979485C108.28 0.0961883 110.826 1.34061 112.485 4.06532C113.201 5.2411 113.573 6.6281 114.102 7.91829C114.1 9.0395 114.1 10.159 114.1 11.2767ZM27.3945 33.2257C27.6675 31.9971 27.9159 30.7421 28.2274 29.5012C29.4522 24.6186 31.1337 19.9612 34.6348 16.1769C38.4177 12.0881 43.5619 11.4456 48.0324 14.7142C49.3272 15.6612 50.4733 16.9056 51.4374 18.2011C53.9657 21.5999 55.278 25.5603 56.2491 29.642C56.5815 31.0414 56.8685 32.4512 57.1992 33.9562C57.8028 31.4937 58.2875 29.158 58.9524 26.8769C60.1195 22.8725 61.7799 19.0988 64.7457 16.0695C66.9311 13.8377 69.4734 12.3239 72.7402 12.6725C75.7042 12.9893 78.1485 14.3657 80.1554 16.5641C82.7468 19.405 84.269 22.8267 85.3679 26.4509C86.0485 28.6968 86.5524 30.9974 87.2086 33.5584C87.4658 32.3245 87.6442 31.3529 87.8699 30.3936C88.8235 26.3506 90.0011 22.4061 92.7254 19.1269C95.9519 15.2423 101.78 14.9008 105.376 18.4264C107.551 20.5579 108.861 23.214 109.859 26.0513C110.014 26.4949 110.174 26.9367 110.329 27.3803C110.643 25.5955 110.774 23.8864 110.884 22.1755C111.155 17.9723 111.542 13.7708 111.649 9.56227C111.761 5.08973 109.068 2.51111 104.63 2.51111C77.5309 2.51111 50.433 2.51111 23.3334 2.51111C18.5147 2.51111 13.6942 2.51815 8.87553 2.50935C6.24571 2.50407 4.35951 3.78722 3.38492 6.1335C2.84951 7.42369 2.61155 8.94974 2.66054 10.3543C2.79877 14.3393 3.15221 18.3155 3.42342 22.2952C3.55639 24.249 3.69112 26.2027 3.82585 28.1565C4.17754 27.808 4.31052 27.4102 4.4365 27.0089C5.26062 24.3968 6.40668 21.9537 8.11615 19.7958C11.4966 15.5309 16.975 15.0011 21.0396 18.5936C22.9257 20.2605 24.0928 22.4466 24.8872 24.7823C25.825 27.5439 26.5582 30.376 27.3945 33.2257ZM54.7916 52.8866C54.8913 52.8197 54.991 52.7528 55.0908 52.6859C54.2877 49.6743 53.579 46.6345 52.6552 43.6616C51.7908 40.8771 50.5555 38.2298 48.5276 36.0754C44.7622 32.0763 39.905 31.2667 35.8282 36.1564C33.6953 38.7139 32.3252 41.6656 31.3489 44.8181C29.1757 51.827 28.6018 59.0577 28.4584 66.3447C28.4234 68.0767 28.4356 68.0767 30.0926 68.661C30.2676 68.7226 30.4443 68.7737 30.621 68.83C36.1309 70.5514 41.7404 71.4614 47.49 70.5162C49.9956 70.1043 52.447 69.3563 54.9123 68.7121C55.7382 68.4956 56.1406 67.9728 56.0671 66.9871C55.8659 64.3117 55.8134 61.6275 55.6209 58.952C55.5912 58.5437 55.215 58.0156 54.8493 57.8027C52.4749 56.4262 50.0586 55.1255 47.6597 53.7948C46.7849 53.309 45.8925 52.8478 45.0562 52.2987C44.3073 51.8076 44.0903 51.0595 44.5102 50.2481C44.9214 49.4543 45.6073 49.1709 46.4769 49.4701C46.8269 49.5898 47.1716 49.7289 47.5128 49.8697C49.9379 50.873 52.3647 51.8815 54.7916 52.8866ZM58.4782 45.6928C58.4782 46.4761 58.4887 47.2576 58.4765 48.0409C58.4415 50.3977 58.4362 50.403 60.6374 51.093C66.5164 52.9376 72.5057 53.7438 78.6122 52.6102C80.9183 52.1825 83.1597 51.3711 85.4028 50.6477C85.7073 50.5491 86.0362 49.9418 86.0362 49.5687C86.0397 42.7992 85.3941 36.093 83.7756 29.5153C82.7835 25.4793 81.4012 21.5735 78.5807 18.4017C75.1618 14.5576 70.1891 13.3888 66.03 18.1518C63.7816 20.7269 62.3941 23.7508 61.3758 26.9649C59.4476 33.055 58.8107 39.3475 58.4782 45.6928ZM109.964 42.778C110.058 42.7692 110.153 42.7604 110.245 42.7516C109.799 38.9832 109.484 35.1936 108.87 31.4532C108.293 27.9488 107.12 24.6151 105.068 21.6475C102.057 17.2946 96.2808 17.1485 93.4918 22.0822C92.3352 24.1293 91.4131 26.3752 90.7762 28.6423C88.981 35.0316 88.5033 41.6075 88.4806 48.2239C88.4736 50.2657 88.4701 50.2446 90.4228 50.6899C93.7962 51.4591 97.2012 51.3482 100.594 50.9803C103.56 50.66 106.336 49.6074 109.035 48.3507C109.717 48.0338 110.021 47.5938 109.981 46.8C109.916 45.464 109.964 44.121 109.964 42.778ZM4.56948 42.9611C4.56948 44.2654 4.63772 45.5749 4.54673 46.8721C4.4785 47.8613 4.91417 48.3172 5.73654 48.715C10.2456 50.9011 15.01 51.7495 19.9687 51.4292C21.7272 51.3148 23.4664 50.9011 25.2126 50.6054C25.8618 50.4963 26.0752 50.0967 26.07 49.4173C26.028 43.7092 25.699 38.0239 24.616 32.409C23.9371 28.8922 22.973 25.4723 21.1078 22.3533C18.142 17.3967 12.4205 17.5833 9.59291 21.7707C8.99276 22.6595 8.41885 23.5836 7.96393 24.5535C5.22212 30.3831 4.74095 36.6492 4.56948 42.9611ZM28.5703 44.9817C28.6561 44.9958 28.7418 45.0099 28.8275 45.0257C28.9343 44.686 29.0113 44.3322 29.153 44.0084C30.1486 41.7307 30.9499 39.3317 32.2272 37.223C33.3033 35.4453 34.7573 33.7925 36.3566 32.4636C40.9548 28.6423 46.6589 30.538 50.0883 34.2413C52.5414 36.8903 53.9692 40.1114 55.1275 43.4786C55.3672 44.1738 55.5894 44.8761 55.8204 45.5749C55.7574 42.5492 55.5352 39.5728 55.1275 36.6228C54.8021 34.266 54.3436 31.9179 53.7785 29.6068C52.7724 25.4934 51.4216 21.489 48.4908 18.3014C45.0159 14.5206 40.1692 13.4663 36.0819 18.0955C34.3846 20.0176 33.1703 22.2195 32.2307 24.5887C30.2886 29.4801 29.4592 34.6233 28.9185 39.8227C28.7383 41.5336 28.6823 43.2603 28.5703 44.9817Z" fill="white"/>
<path d="M15.3173 71.8064C14.7907 71.1957 14.3305 70.8612 14.152 70.4124C13.8546 69.6591 13.7129 68.8388 13.5466 68.0397C13.1634 66.2039 12.0751 65.095 10.2554 64.6937C9.53278 64.5335 8.77165 64.442 8.11726 64.1287C7.62559 63.8946 7.03069 63.414 6.91871 62.9406C6.72974 62.1309 7.47511 61.837 8.1575 61.6697C8.83989 61.5025 9.52403 61.3441 10.2099 61.191C12.0139 60.7879 13.1424 59.7037 13.5414 57.8713C13.7006 57.1444 13.7723 56.3717 14.0803 55.7134C14.3113 55.2188 14.7959 54.645 15.2754 54.5165C15.9962 54.3229 16.3497 54.9636 16.5037 55.6483C16.6821 56.4456 16.8938 57.2377 17.0811 58.0333C17.48 59.7283 18.5561 60.7351 20.2078 61.1487C20.9602 61.3388 21.7685 61.3916 22.4632 61.7067C22.9619 61.932 23.6145 62.4706 23.6407 62.9036C23.6652 63.2944 23.0003 63.8893 22.5139 64.1093C21.751 64.4543 20.8762 64.5493 20.0556 64.7676C18.4826 65.1848 17.4992 66.1951 17.0986 67.7792C16.8798 68.6452 16.7399 69.5376 16.4319 70.3702C16.2622 70.8243 15.8195 71.1763 15.3173 71.8064ZM15.3208 64.8028C15.8108 64.3082 16.7031 63.4052 17.5955 62.504C17.5395 62.7998 17.4835 63.0955 17.4275 63.3894C16.5509 62.4794 15.6743 61.5694 14.7977 60.6594C15.0916 60.6911 15.3856 60.721 15.6795 60.7527C14.7942 61.6152 13.9088 62.4776 13.4486 62.9265C13.8983 63.3753 14.7749 64.2554 15.3208 64.8028Z" fill="white"/>
<path d="M36.0934 13.0632C35.467 13.5824 35.1223 14.0295 34.6744 14.202C33.8852 14.5047 33.0366 14.6491 32.2073 14.8427C30.5345 15.2334 29.476 16.2508 29.063 17.9335C28.8496 18.7995 28.7323 19.706 28.3946 20.5192C28.2162 20.9469 27.6545 21.4784 27.2643 21.4784C26.8759 21.4802 26.3212 20.9504 26.1322 20.5227C25.8086 19.7869 25.7123 18.9491 25.5233 18.1535C25.0982 16.3564 24.0518 15.2 22.2094 14.818C21.4133 14.6526 20.5874 14.5206 19.8578 14.1932C19.4396 14.0048 18.9269 13.4522 18.9252 13.0632C18.9252 12.6742 19.4361 12.1197 19.8543 11.9314C20.5857 11.604 21.4115 11.4773 22.2076 11.3083C24.0396 10.9193 25.1087 9.78049 25.5303 7.9781C25.7158 7.18075 25.8103 6.34292 26.1305 5.60542C26.316 5.1777 26.8706 4.64966 27.2608 4.64966C27.651 4.64966 28.2144 5.17594 28.3929 5.60366C28.7323 6.41685 28.8531 7.32156 29.0613 8.18932C29.4707 9.88082 30.5485 10.8771 32.2108 11.2784C33.0384 11.4773 33.8887 11.6181 34.6761 11.9226C35.1258 12.0933 35.4687 12.5422 36.0934 13.0632ZM29.1453 13.0632C28.5906 12.5122 27.7105 11.6374 26.8304 10.7627C27.1401 10.7961 27.448 10.8278 27.7577 10.8612C26.8304 11.7219 25.903 12.5844 25.4044 13.0473C25.896 13.5666 26.7604 14.4801 27.2328 14.98C27.777 14.4343 28.6501 13.5595 29.1453 13.0632Z" fill="white"/>
<path d="M68.0678 29.1263C68.6032 29.7283 69.0616 30.0557 69.2488 30.4993C69.534 31.1752 69.6723 31.9232 69.8017 32.6537C70.1534 34.6338 71.3013 35.8307 73.2329 36.2884C73.9521 36.4591 74.7185 36.5225 75.3781 36.8252C75.8365 37.0364 76.3614 37.517 76.4769 37.9728C76.6641 38.7174 76.0237 39.0659 75.3588 39.2243C74.568 39.4127 73.7684 39.564 72.9827 39.7752C71.2418 40.2417 70.2007 41.3805 69.8315 43.1547C69.695 43.8095 69.5253 44.4572 69.3783 45.1103C69.2226 45.7985 68.9986 46.4356 68.1465 46.4497C67.3067 46.4638 67.025 45.8882 66.8745 45.1683C66.724 44.4414 66.5175 43.725 66.3548 42.9998C65.9769 41.3118 64.9498 40.254 63.3033 39.8034C62.5544 39.5992 61.8003 39.4126 61.0392 39.2613C60.327 39.1187 59.7094 38.8406 59.6954 38.0274C59.6796 37.223 60.2431 36.9009 60.9814 36.7566C61.851 36.5859 62.7136 36.3641 63.5605 36.1071C65.0285 35.6635 65.9349 34.6585 66.3023 33.1641C66.5158 32.2981 66.6558 31.4057 66.9602 30.5732C67.1282 30.1155 67.5656 29.7618 68.0678 29.1263ZM69.9207 38.0274C69.4623 37.5451 68.5892 36.6263 68.1395 36.1546C67.6636 36.6492 66.78 37.5663 65.8964 38.4851C65.8999 38.1647 65.9051 37.8444 65.9086 37.524C66.8097 38.4428 67.7126 39.3634 68.6137 40.2822C68.3215 40.2663 68.0275 40.2505 67.7353 40.2329C68.6084 39.3528 69.4781 38.4727 69.9207 38.0274Z" fill="white"/>
</g>
<defs>
<clipPath id="clip0">
<rect width="113.912" height="91.0877" fill="white" transform="translate(0.1875 0.052124)"/>
</clipPath>
</defs>
</svg>
