<svg width="84" height="84" viewBox="0 0 84 84" fill="none" xmlns="http://www.w3.org/2000/svg">
<g clip-path="url(#clip0)">
<path d="M0.78125 75.7972C1.43888 75.0492 2.06996 74.2759 2.75856 73.5577C3.90572 72.3612 5.08679 71.1961 6.25902 70.0234C7.24399 69.037 8.07118 69.0236 9.065 69.9876C9.59139 70.4972 10.0927 71.0321 10.5926 71.5432C12.5271 69.5302 14.4396 67.544 16.3933 65.5116C11.2576 59.0732 9.54863 51.6335 12.2086 43.5234C14.8627 35.431 20.5985 30.4559 28.7732 28.2372C28.0403 27.0109 27.2884 25.8234 26.6057 24.5971C22.7926 17.7519 23.7997 8.07722 30.8935 2.9575C33.0684 1.38851 35.4807 0.434893 38.1436 0.145828C38.409 0.117518 38.6715 0.0474869 38.9354 -0.00168381C39.6388 -0.00168381 40.3421 -0.00168381 41.0455 -0.00168381C41.5114 0.0906976 41.9759 0.187549 42.4418 0.27695C45.6223 0.878919 48.0818 2.65652 50.1077 5.11505C51.1104 6.33091 52.0393 7.60935 53.039 8.82819C53.9842 9.97998 54.3528 9.96955 55.3083 8.8118C55.9482 8.0355 56.569 7.24131 57.1721 6.43521C58.9739 4.02734 61.0279 1.91001 63.9061 0.858059C65.012 0.454263 66.1975 0.27695 67.3461 -0.00317383C67.9949 -0.00317383 68.6452 -0.00317383 69.2939 -0.00317383C69.7687 0.0594071 70.2494 0.102618 70.7198 0.189039C76.5868 1.27229 80.6918 4.58162 82.8947 10.1901C83.3828 11.4342 83.5774 12.7976 83.9062 14.1058C83.9062 15.3083 83.9062 16.5122 83.9062 17.7147C83.7264 18.6728 83.5996 19.6457 83.3563 20.5889C82.8063 22.7226 81.8228 24.6701 80.6284 26.5028C79.8116 27.7559 78.977 29.0046 78.0481 30.1742C76.0191 32.7296 74.8956 35.6888 74.1701 38.8223C73.2677 42.7187 72.4877 46.6435 71.5499 50.5309C71.0914 52.4307 70.4544 54.2947 69.7835 56.1319C69.2497 57.5921 68.3399 58.8482 66.9362 59.5798C64.6714 60.7599 62.0954 59.8898 60.5457 57.5534C58.968 55.1768 58.2072 52.4754 57.4124 49.7814C56.7887 47.6686 56.1399 45.5632 55.4838 43.4593C55.3732 43.1017 55.1726 42.7724 54.9721 42.3403C55.3393 43.8437 55.7595 45.2279 56.0102 46.6435C57.0674 52.605 55.963 58.1554 52.6837 63.2229C49.7524 67.7526 45.6754 70.8086 40.6031 72.5177C39.6049 72.8544 38.819 72.6086 38.4105 71.8651C37.8399 70.8235 38.2999 69.8863 39.5459 69.3886C40.7992 68.8895 42.0997 68.447 43.2469 67.7541C49.6374 63.8905 52.9638 58.1628 53.1349 50.6278C53.1806 48.6133 52.9004 46.6181 52.2045 44.7169C51.336 47.3408 50.5309 49.9692 49.5931 52.5469C48.5934 55.2975 47.3666 57.9468 45.3053 60.0909C41.6485 63.892 36.5394 63.4107 33.5977 59.027C31.5143 55.9218 30.3907 52.4218 29.5561 48.8338C28.3235 43.5353 27.2338 38.204 26.0822 32.8861C26.0719 32.8384 26.0291 32.7967 25.8743 32.5434C24.4765 33.4463 22.9961 34.239 21.6985 35.2686C12.2396 42.762 11.7913 57.0796 20.7121 65.224C22.769 67.1015 25.109 68.4559 27.7248 69.3767C28.2586 69.5645 28.8852 69.9921 29.0931 70.4749C29.2819 70.9129 29.1064 71.6714 28.8263 72.1169C28.4355 72.7382 27.7248 72.8053 27.0038 72.5669C24.4146 71.7086 22.0185 70.4913 19.876 68.7777C19.5811 68.5408 19.2803 68.3129 19.0253 68.1147C17.073 70.1024 15.1414 72.0692 13.0447 74.2029C13.4973 74.6037 14.0886 75.0731 14.618 75.6065C15.5941 76.5899 15.597 77.4363 14.6268 78.4346C13.055 80.0527 11.4684 81.659 9.86418 83.2444C9.54716 83.5573 9.11513 83.7525 8.73618 84.0013C6.51706 84.0013 4.29794 84.0013 2.08029 84.0013C1.64678 83.5632 1.21475 83.1267 0.78125 82.6886C0.78125 80.391 0.78125 78.0934 0.78125 75.7972ZM27.6245 16.0399C27.7528 17.1172 27.7912 18.2153 28.0256 19.2688C28.6877 22.2354 30.3406 24.6999 32.051 27.1316C32.3724 27.5876 32.6939 27.75 33.2424 27.7396C36.7502 27.68 40.1121 28.3713 43.2911 29.8882C47.0128 31.6643 50.0517 34.2614 52.3962 37.684C52.607 37.9909 52.75 38.3351 53.2705 38.1861C54.8379 37.7376 56.1576 38.2755 57.0231 39.5748C57.7678 40.6923 58.4003 41.935 58.8265 43.2104C59.835 46.2292 60.6195 49.324 61.6428 52.3368C62.091 53.6555 62.784 54.9325 63.5788 56.0753C64.3558 57.1913 65.5015 57.0468 66.2181 55.8935C66.5897 55.296 66.9775 54.6642 67.1471 53.9937C68.1188 50.145 69.1126 46.2963 69.9383 42.4148C71.1562 36.6871 72.7531 31.1964 76.6163 26.5669C78.7411 24.0205 80.2318 21.0508 80.6196 17.5895C81.1917 12.4907 78.9151 7.51697 74.5756 5.0033C69.754 2.211 63.9695 2.68334 60.357 7.65554C59.3838 8.99507 58.3325 10.2869 57.2207 11.5117C55.3909 13.5262 52.8592 13.4994 51.075 11.4521C49.6831 9.85481 48.4283 8.13533 47.029 6.54547C44.8482 4.06906 42.0511 3.08266 38.8101 3.36726C32.3474 3.93496 27.427 9.62237 27.6245 16.0399ZM29.2096 31.5704C29.2096 31.8088 29.1801 31.9787 29.2141 32.1336C30.23 36.8942 31.1943 41.6683 32.2943 46.411C33.0743 49.78 33.9413 53.1414 35.6665 56.1826C36.3978 57.4715 37.2398 58.7171 38.7349 59.1835C40.6577 59.7825 42.1793 58.89 43.2778 57.4491C44.2894 56.123 45.2522 54.6613 45.8125 53.1027C47.3018 48.959 48.5698 44.7332 49.8984 40.5314C49.9809 40.2677 49.9102 39.8624 49.7539 39.6299C48.4121 37.6169 46.7591 35.8989 44.7656 34.5415C40.0221 31.3111 34.8525 30.3128 29.2096 31.5704ZM7.48433 73.2225C6.40205 74.3713 5.30207 75.5335 4.21241 76.7062C4.11215 76.8134 4.03547 76.9907 4.034 77.1368C4.01925 78.302 4.02663 79.4687 4.02663 80.7203C5.24899 80.7203 6.37846 80.7292 7.50645 80.7113C7.67454 80.7084 7.87802 80.619 8.00188 80.5012C9.15936 79.3986 10.3021 78.2811 11.4448 77.174C10.103 75.836 8.87921 74.6142 7.48433 73.2225Z" fill="white"/>
<path d="M33.726 70.3558C34.6122 70.3588 35.3303 71.0636 35.3465 71.9487C35.3612 72.8173 34.534 73.6398 33.6773 73.6071C32.8339 73.5758 32.107 72.795 32.1188 71.9353C32.1321 71.0278 32.8162 70.3543 33.726 70.3558Z" fill="white"/>
<path d="M31.1219 16.4617C31.6011 12.4238 33.5902 9.40947 37.2868 7.72426C38.5092 7.16699 39.9129 6.93902 41.2591 6.76021C42.4328 6.60376 43.1406 7.26533 43.1922 8.23534C43.2497 9.31411 42.6791 9.90714 41.4287 10.0055C38.6699 10.223 36.5171 11.4553 35.221 13.9525C34.7816 14.7989 34.5811 15.7912 34.3835 16.7404C34.1122 18.0501 33.0255 18.7549 31.9698 18.1961C31.2885 17.8355 31.0482 17.2351 31.1219 16.4617Z" fill="white"/>
<path d="M33.2231 18.8368C34.1019 18.8264 34.8377 19.549 34.8318 20.4162C34.8259 21.3177 34.1476 22.012 33.2511 22.0359C32.3723 22.0582 31.6351 21.3549 31.6292 20.4877C31.6233 19.4939 32.2485 18.8472 33.2231 18.8368Z" fill="white"/>
<path d="M34.2317 41.3123C34.2406 38.6452 36.4538 36.4235 39.0976 36.4265C41.7207 36.4295 43.9605 38.6899 43.9605 41.3317C43.9605 44.0107 41.6956 46.28 39.0415 46.2622C36.4243 46.2428 34.2243 43.978 34.2317 41.3123ZM39.1153 39.718C38.2748 39.7075 37.4889 40.4809 37.48 41.3287C37.4712 42.184 38.2261 42.9677 39.074 42.9796C39.8953 42.9916 40.7003 42.1989 40.7151 41.3615C40.7298 40.5122 39.9675 39.7299 39.1153 39.718Z" fill="white"/>
</g>
<defs>
<clipPath id="clip0">
<rect width="83.125" height="84" fill="white" transform="translate(0.78125)"/>
</clipPath>
</defs>
</svg>
